<?xml version="1.0" encoding="UTF-8"?>
<svg version="1.1" xmlns="http://www.w3.org/2000/svg" width="512" height="512">
<path d="M0 0 C20.15969065 16.64603322 32.00767084 36.40810043 34.625 62.6875 C39.07212659 125.83669754 15.36958256 197.264529 -25.23828125 245.66796875 C-38.33362896 260.67063176 -53.08631871 272.813075 -73.5625 274.25 C-85.93357267 274.01436052 -99.38612682 269.30050012 -108.4765625 260.7421875 C-119.26504584 248.4045886 -119.83072652 233.61189964 -119 218 C-118.38095983 211.16023077 -117.38981496 204.36443299 -116.43405151 197.56518555 C-112.85059695 171.74355221 -108.96492507 143.58724832 -116 118 C-116.3403125 116.75476563 -116.680625 115.50953125 -117.03125 114.2265625 C-119.74662196 105.32821518 -123.63403746 97.25612577 -127.93408203 89.03808594 C-138.05057843 69.69486286 -147.21969102 50.23464422 -141 28 C-137.63218197 19.18659146 -132.66319096 12.59402289 -126 6 C-125.41992188 5.38640625 -124.83984375 4.7728125 -124.2421875 4.140625 C-114.12863629 -5.74616497 -99.35670696 -11.26539443 -86 -15 C-84.989375 -15.31839844 -83.97875 -15.63679688 -82.9375 -15.96484375 C-55.20988201 -23.48596013 -22.89378443 -17.33867497 0 0 Z " fill="#FED7B6" transform="translate(425,135)"/>
<path d="M0 0 C1.13526123 0.00491455 2.27052246 0.0098291 3.44018555 0.01489258 C23.01315905 0.28648796 42.16650304 4.95207278 57 18.5 C67.77664757 30.07971505 71.63139998 45.00004148 71.3984375 60.46875 C70.98457518 68.39748076 69.7714129 76.15697975 68.00390625 83.88671875 C59.12662021 123.14798736 68.20397396 155.95726544 82.33770752 192.61962891 C95.90322398 227.81343364 95.90322398 227.81343364 90.34765625 243.9375 C84.76252914 256.02204549 73.2039197 263.43119019 61.25 268.3125 C44.33490056 273.72320997 26.79877899 269.68353231 11.37744141 261.79003906 C-1.38386262 254.90357536 -12.76420276 246.0863967 -23.0859375 235.94580078 C-24.87710226 234.18774735 -26.68851031 232.45193297 -28.5 230.71484375 C-36.14914746 223.30418902 -43.08768851 215.64449744 -49.43066406 207.08935547 C-50.79068182 205.25771053 -52.17149374 203.44309517 -53.5546875 201.62890625 C-80.12671745 166.47503355 -102.48055518 120.99089673 -97.48193359 75.89404297 C-95.76360832 65.20251132 -91.04249023 55.64122321 -85.75 46.3125 C-85.26660156 45.46042969 -84.78320312 44.60835937 -84.28515625 43.73046875 C-71.48183419 23.13382022 -50.22814611 8.72790051 -26.91650391 2.80004883 C-17.92401489 0.77638413 -9.21007195 -0.04755631 0 0 Z " fill="#FED8B7" transform="translate(162.75,209.6875)"/>
<path d="M0 0 C6.93976813 5.73022736 13.31565105 12.01465569 19 19 C15.069662 19 12.69528228 17.22318838 9.4375 15.25 C-14.18603985 1.39826364 -40.4040466 0.24630285 -66.5625 6.8125 C-87.36804762 12.62267346 -106.02177998 22.9278581 -117 42 C-123.1747809 53.93347145 -122.94339899 69.57839725 -119 82.25 C-115.7223834 91.86731221 -110.89789836 100.88014706 -105.91796875 109.70703125 C-86.69748664 144.00517768 -89.14889989 181.79508589 -95.31640625 219.4921875 C-96.79722477 228.93496934 -97.15639698 238.19485256 -97.125 247.75 C-97.12886719 248.94238281 -97.13273437 250.13476562 -97.13671875 251.36328125 C-97.13478516 253.09384766 -97.13478516 253.09384766 -97.1328125 254.859375 C-97.13112061 256.41350098 -97.13112061 256.41350098 -97.12939453 257.99902344 C-96.99693131 261.07117036 -96.56750687 263.98043513 -96 267 C-102.81405913 266.02998455 -107.57685667 262.03547113 -111.80859375 256.734375 C-123.20972522 239.10669044 -119.18993696 217.17039962 -116.43405151 197.56518555 C-112.85059695 171.74355221 -108.96492507 143.58724832 -116 118 C-116.3403125 116.75476563 -116.680625 115.50953125 -117.03125 114.2265625 C-119.74662196 105.32821518 -123.63403746 97.25612577 -127.93408203 89.03808594 C-138.05057843 69.69486286 -147.21969102 50.23464422 -141 28 C-137.63218197 19.18659146 -132.66319096 12.59402289 -126 6 C-125.41992188 5.38640625 -124.83984375 4.7728125 -124.2421875 4.140625 C-114.12863629 -5.74616497 -99.35670696 -11.26539443 -86 -15 C-84.989375 -15.31839844 -83.97875 -15.63679688 -82.9375 -15.96484375 C-55.20988201 -23.48596013 -22.89378443 -17.33867497 0 0 Z " fill="#DDB99E" transform="translate(425,135)"/>
<path d="M0 0 C1.13526123 0.00491455 2.27052246 0.0098291 3.44018555 0.01489258 C23.02878187 0.28670474 42.64166041 4.88505237 57.1875 18.875 C64.25 26.41286058 64.25 26.41286058 64.25 30.3125 C61.04538351 29.25251147 57.85033611 28.17274825 54.6640625 27.05859375 C53.40107084 26.62231136 52.13804965 26.18611448 50.875 25.75 C49.00714844 25.09837891 49.00714844 25.09837891 47.1015625 24.43359375 C23.20553055 16.99994149 -7.57277494 21.85101322 -29.3125 33.0625 C-50.77071017 45.27525135 -66.75808125 64.32998609 -73.875 88.0625 C-74.12507813 89.02671875 -74.37515625 89.9909375 -74.6328125 90.984375 C-75.75 93.3125 -75.75 93.3125 -78.3046875 94.515625 C-79.51511719 94.91007812 -79.51511719 94.91007812 -80.75 95.3125 C-82.4012107 98.6149214 -81.92284656 102.03343542 -81.4375 105.625 C-81.210625 106.181875 -80.98375 106.73875 -80.75 107.3125 C-79.265 107.8075 -79.265 107.8075 -77.75 108.3125 C-77.71261719 109.17230469 -77.67523438 110.03210938 -77.63671875 110.91796875 C-77.16774188 119.35035673 -75.90564063 127.15630205 -73.75 135.3125 C-73.523125 136.21355469 -73.29625 137.11460937 -73.0625 138.04296875 C-63.995862 172.91861606 -45.35904284 212.26869498 -18.75 237.3125 C-19.08 237.9725 -19.41 238.6325 -19.75 239.3125 C-41.12830413 218.54679974 -41.12830413 218.54679974 -49.51123047 207.00878906 C-50.82947301 205.20367492 -52.17958869 203.42566455 -53.53515625 201.6484375 C-80.13161768 166.51388153 -102.4797742 120.98385085 -97.48193359 75.89404297 C-95.76360832 65.20251132 -91.04249023 55.64122321 -85.75 46.3125 C-85.26660156 45.46042969 -84.78320312 44.60835937 -84.28515625 43.73046875 C-71.48183419 23.13382022 -50.22814611 8.72790051 -26.91650391 2.80004883 C-17.92401489 0.77638413 -9.21007195 -0.04755631 0 0 Z " fill="#DEBA9E" transform="translate(162.75,209.6875)"/>
<path d="M0 0 C7.78655553 6.66834616 12.48741299 15.87025065 14 26 C14.78377315 39.18849046 13.25827287 50.26054201 5 61 C-1.85864843 67.50899184 -8.25406366 69.54477117 -17.64453125 69.375 C-25.15009001 68.53619483 -31.32608519 64.64471745 -36.40234375 59.1484375 C-44.63354113 48.07959017 -47.14056059 36.54235236 -46 23 C-44.17381729 13.26764901 -40.59845906 5.13761115 -32.5 -0.84765625 C-21.58834431 -7.71615381 -10.74216838 -7.33139806 0 0 Z " fill="#DEBA9E" transform="translate(198,118)"/>
<path d="M0 0 C7.62609607 5.85724228 12.56473961 15.26563594 14.03515625 24.68359375 C15.19781257 37.71227636 14.25661151 49.41966573 5.75 59.9609375 C0.37799057 65.35742078 -5.47149601 67.82444352 -13.02734375 68.05859375 C-21.34893227 67.99372613 -26.47745561 65.03087423 -33.21484375 60.49609375 C-42.4933214 51.00674161 -46.23306625 38.95186134 -46.28613281 25.97119141 C-46.12641191 16.42894684 -42.92549024 7.70811122 -36.14453125 0.83984375 C-24.86429093 -9.62547426 -12.21280104 -8.1823339 0 0 Z " fill="#DEBA9F" transform="translate(316.96484375,38.31640625)"/>
<path d="M0 0 C8.00373713 5.81797759 12.63353352 13.54422738 14.47265625 23.17578125 C15.40161916 30.65967344 14.79022508 36.98779628 11.1953125 43.6640625 C7.22407703 48.51779474 2.65473411 52.95833356 -3.7890625 53.75 C-12.50965053 53.86296098 -17.23547733 52.10997556 -24.2421875 47.1640625 C-31.44513471 40.12118078 -34.72008496 31.62769954 -35.1875 21.55078125 C-34.80527588 13.60276798 -32.16361408 5.90066542 -26.1796875 0.4140625 C-17.99160657 -4.82630929 -8.45873788 -4.76018043 0 0 Z " fill="#FFD8B7" transform="translate(125.0546875,141.5859375)"/>
<path d="M0 0 C5.62988269 5.06142852 8.63203207 11.83512849 9.34765625 19.32421875 C9.46640361 30.67646589 7.84827019 38.77508866 -0.15234375 47.11328125 C-5.79783327 52.3263503 -10.29456573 53.48782931 -18.0546875 53.1875 C-24.64820065 52.33587447 -29.58740234 49.27729158 -33.6640625 44.0390625 C-38.92329016 35.1805994 -39.9881066 25.79473461 -37.98828125 15.80859375 C-35.72157449 7.89949328 -30.86931807 1.21483658 -23.86328125 -3.12890625 C-15.0092201 -6.40105928 -7.69000162 -5.59638861 0 0 Z " fill="#FFD8B6" transform="translate(384.98828125,42.19140625)"/>
<path d="M0 0 C1.18916016 0.01353516 1.18916016 0.01353516 2.40234375 0.02734375 C4.35169281 0.05082988 6.30088575 0.08669863 8.25 0.125 C12.60823663 10.44987011 13.17937415 23.58687756 9.625 34.25 C6.02304586 42.46144789 1.33271509 48.10949335 -6.75 52.125 C-10.12768474 53.25089491 -12.75812072 53.25794275 -16.3125 53.25 C-17.46878906 53.25257812 -18.62507813 53.25515625 -19.81640625 53.2578125 C-22.75 53.125 -22.75 53.125 -24.75 52.125 C-29.47923481 42.94854897 -29.51659908 28.63751021 -26.5 18.875 C-23.20822702 11.07789717 -17.89671173 5.73714172 -11.046875 0.9296875 C-7.4131054 -0.34336783 -3.81664376 -0.08228254 0 0 Z " fill="#FED7B6" transform="translate(319.75,52.875)"/>
<path d="M0 0 C4.70195237 8.70731921 4.33845325 21.00123324 1.875 30.3125 C-1.65678549 40.18507246 -6.81103046 47.48378709 -16.33203125 52.140625 C-19.53817543 53.1733508 -22.26067108 53.26546818 -25.625 53.25 C-26.75164062 53.25515625 -27.87828125 53.2603125 -29.0390625 53.265625 C-32 53 -32 53 -35 51 C-37.76788359 38.4142705 -37.91250885 23.14071857 -31 12 C-23.98258192 1.40263006 -12.51378957 -4.17126319 0 0 Z " fill="#FED7B6" transform="translate(209,134)"/>
<path d="M0 0 C5.29973586 2.67776128 8.97595832 6.33103642 11.3125 11.796875 C13.30841585 18.19287806 13.76509325 24.02944464 11.0234375 30.2421875 C8.75464118 34.13897508 6.25805953 36.58064682 2 38 C-3.32409484 38.84458533 -7.20109618 38.30343031 -11.8125 35.4375 C-16.94695489 31.64714325 -19.72904871 27.30768419 -21 21 C-21.51313935 15.01995301 -21.5436499 10.07923152 -18 5 C-12.39832709 -0.63228315 -7.60308336 -1.96843582 0 0 Z " fill="#FFD8B7" transform="translate(71,177)"/>
<path d="M0 0 C4.40521578 1.83550658 5.18106267 5.00520169 7 9.25 C8.07096896 12.05995482 9.03108564 14.90356407 10 17.75 C12.85072615 25.80498711 16.35652875 33.42848681 20.1875 41.0625 C20.95416992 42.59197266 20.95416992 42.59197266 21.73632812 44.15234375 C23.76889407 48.13776717 25.76602065 52.0478817 28.33203125 55.71875 C30.56445335 59.1065943 30.59945585 61.278605 30 65.25 C28.3125 67.25 28.3125 67.25 26 68.25 C22.82210235 68.03347758 21.42040269 67.68769038 19.18920898 65.36474609 C15.02547611 59.06709233 11.38711244 52.65262906 8.0625 45.875 C7.55033936 44.83786865 7.03817871 43.8007373 6.51049805 42.73217773 C3.23624683 36.01069792 0.1437748 29.23251337 -2.6875 22.3125 C-3.01419678 21.52762207 -3.34089355 20.74274414 -3.67749023 19.93408203 C-5.67597781 14.86631363 -7.14508319 9.74977961 -7 4.25 C-4.97385059 0.84606899 -3.92953117 0.32746093 0 0 Z " fill="#F4F7FA" transform="translate(92,323.75)"/>
<path d="M0 0 C5.46306259 3.17572424 8.75338029 7.01795338 10.77734375 13.08984375 C11.30602091 18.51895152 11.29386586 22.66163072 7.77734375 27.08984375 C5.51302126 29.75685916 4.00351696 30.56374684 0.52734375 30.96484375 C-4.1664525 31.30662503 -7.13478726 30.58798591 -11.22265625 28.08984375 C-16.26236506 23.24164387 -19.32610523 19.44009177 -19.53515625 12.27734375 C-19.48591658 7.45889053 -18.5194882 4.75299036 -15.22265625 1.08984375 C-10.43154397 -1.7948051 -5.19127927 -2.12577868 0 0 Z " fill="#FFD8B6" transform="translate(45.22265625,218.91015625)"/>
<path d="M0 0 C4.01664363 2.79922793 7.11378733 5.80263267 8.58984375 10.5625 C9.3895397 15.61589784 8.87299297 19.00667829 5.89453125 23.3203125 C2.69400143 26.22079265 0.04335014 27.23020906 -4.29296875 27.5703125 C-9.58235947 27.22346721 -13.9485822 26.33714148 -17.91015625 22.6328125 C-22.50899265 17.35185204 -23.46034151 14.05441115 -23.38671875 7.0234375 C-23.00375447 3.34272529 -21.92740459 1.68463712 -19.10546875 -0.6796875 C-12.82856603 -4.34121408 -6.075881 -3.42742005 0 0 Z " fill="#FFD8B7" transform="translate(39.10546875,263.6796875)"/>
<path d="M0 0 C4.19319448 1.77045989 6.19018892 3.83743453 8 8 C9.61448217 14.38341413 9.23629696 20.19210006 6 26 C3.03949149 29.2613454 -0.4483353 32.64276694 -4.953125 33.2734375 C-9.11214963 33.45733995 -12.07914558 33.45772237 -15.4375 30.8125 C-19.67417428 26.16249164 -20.42577638 22.41975876 -20.2421875 16.26953125 C-19.65318179 10.7499777 -17.5204711 7.20610591 -13.4375 3.625 C-9.06866047 0.11113767 -5.62293222 -0.59473322 0 0 Z " fill="#FFD8B6" transform="translate(466,93)"/>
<path d="M0 0 C3.12465186 1.6748134 5.39254192 3.78508385 7 7 C7.72601866 14.17687302 7.4043488 19.20480421 3 25 C-1.05259008 29.06317126 -4.58299543 31.1313924 -10.375 31.25 C-14.40270327 31.19115369 -16.84918251 30.68746197 -20 28 C-23.12476663 24.3364805 -23.52596512 20.99913209 -23.34765625 16.33984375 C-22.53716424 10.88495936 -20.0770881 6.66528366 -15.9375 3.0625 C-10.92458352 -0.45720732 -5.97456104 -0.85350872 0 0 Z " fill="#FFD8B7" transform="translate(489,132)"/>
<path d="M0 0 C4.07731269 1.36749376 6.03659972 4.91304318 7.8984375 8.63671875 C8.66395259 15.50125574 7.97928242 20.04013143 3.8984375 25.63671875 C0.14796268 28.13703529 -1.66012516 28.17275429 -6.1015625 27.63671875 C-9.72396259 24.81929646 -12.1006227 22.14094784 -13.1015625 17.63671875 C-13.3384957 12.2874962 -12.79610767 7.87811172 -9.5390625 3.51171875 C-6.59356248 0.53081609 -4.17047855 -0.35952401 0 0 Z " fill="#FFD8B7" transform="translate(427.1015625,66.36328125)"/>
<path d="M0 0 C2.5 0.5625 2.5 0.5625 4.8125 2.625 C6.90166788 6.26169964 7.03586016 8.42872159 6.5 12.5625 C5.375 14.5 5.375 14.5 3.5 15.5625 C-1.65121951 16.20640244 -1.65121951 16.20640244 -4.3125 14.1875 C-6.70067625 10.91946935 -6.90265599 8.58905987 -6.5 4.5625 C-4.52113939 1.77743692 -3.34067767 0.75165248 0 0 Z " fill="#F3F5F7" transform="translate(86.5,302.4375)"/>
</svg>
